<svg width="32" height="32" viewBox="0 0 32 32" fill="none" xmlns="http://www.w3.org/2000/svg">
  <!-- Background Circle -->
  <circle cx="16" cy="16" r="16" fill="#FF385C"/>

  <!-- CPU/Chip Icon -->
  <rect x="10" y="10" width="12" height="12" rx="1" fill="white"/>

  <!-- Inner Core -->
  <rect x="13" y="13" width="6" height="6" rx="0.5" fill="#FF385C"/>

  <!-- Connection Lines (Top) -->
  <line x1="13" y1="10" x2="13" y2="8" stroke="white" stroke-width="1.5" stroke-linecap="round"/>
  <line x1="16" y1="10" x2="16" y2="8" stroke="white" stroke-width="1.5" stroke-linecap="round"/>
  <line x1="19" y1="10" x2="19" y2="8" stroke="white" stroke-width="1.5" stroke-linecap="round"/>

  <!-- Connection Lines (Bottom) -->
  <line x1="13" y1="22" x2="13" y2="24" stroke="white" stroke-width="1.5" stroke-linecap="round"/>
  <line x1="16" y1="22" x2="16" y2="24" stroke="white" stroke-width="1.5" stroke-linecap="round"/>
  <line x1="19" y1="22" x2="19" y2="24" stroke="white" stroke-width="1.5" stroke-linecap="round"/>

  <!-- Connection Lines (Left) -->
  <line x1="10" y1="13" x2="8" y2="13" stroke="white" stroke-width="1.5" stroke-linecap="round"/>
  <line x1="10" y1="16" x2="8" y2="16" stroke="white" stroke-width="1.5" stroke-linecap="round"/>
  <line x1="10" y1="19" x2="8" y2="19" stroke="white" stroke-width="1.5" stroke-linecap="round"/>

  <!-- Connection Lines (Right) -->
  <line x1="22" y1="13" x2="24" y2="13" stroke="white" stroke-width="1.5" stroke-linecap="round"/>
  <line x1="22" y1="16" x2="24" y2="16" stroke="white" stroke-width="1.5" stroke-linecap="round"/>
  <line x1="22" y1="19" x2="24" y2="19" stroke="white" stroke-width="1.5" stroke-linecap="round"/>
</svg>
